<svg width="35" height="35" viewBox="0 0 35 35" fill="none" xmlns="http://www.w3.org/2000/svg">
<path d="M5.10419 6.5625H8.03767C8.73339 6.5625 9.08125 6.5625 9.34314 6.75126C9.60503 6.94002 9.71503 7.27003 9.93504 7.93004L10.9375 10.9375" stroke="#222222" stroke-linecap="round"/>
<path d="M25.5209 25.5208H11.7409C10.9532 25.5208 10.5593 25.5208 10.305 25.3482C10.11 25.2158 9.96798 25.0188 9.90407 24.7919C9.82075 24.4961 9.9453 24.1225 10.1944 23.3751V23.3751C10.47 22.5484 10.6078 22.1351 10.8693 21.8341C11.0721 21.6006 11.3264 21.4173 11.6121 21.2987C11.9803 21.1458 12.416 21.1458 13.2874 21.1458H21.1459" stroke="#222222" stroke-linecap="round" stroke-linejoin="round"/>
<path d="M21.7412 21.1458H15.0334C13.7542 21.1458 13.1146 21.1458 12.6136 20.8155C12.1127 20.4852 11.8607 19.8973 11.3568 18.7215L9.813 15.1193C9.0035 13.2304 8.59875 12.286 9.04336 11.6118C9.48797 10.9375 10.5155 10.9375 12.5704 10.9375H24.7263C27.0253 10.9375 28.1748 10.9375 28.6084 11.6846C29.042 12.4317 28.4717 13.4298 27.331 15.4259L25.2142 19.1304L25.2142 19.1304C24.6522 20.1138 24.3713 20.6055 23.9057 20.8757C23.4401 21.1458 22.8738 21.1458 21.7412 21.1458Z" stroke="#222222" stroke-linecap="round"/>
<circle cx="24.7916" cy="29.1666" r="1.45833" fill="#222222"/>
<circle cx="13.125" cy="29.1666" r="1.45833" fill="#222222"/>
</svg>
